<?xml version="1.0" encoding="utf-8"?>
<!-- Generator: Adobe Illustrator 23.0.3, SVG Export Plug-In . SVG Version: 6.00 Build 0)  -->
<svg version="1.1" id="Laag_1" xmlns="http://www.w3.org/2000/svg" xmlns:xlink="http://www.w3.org/1999/xlink" x="0px" y="0px"
	 viewBox="0 0 234.8 38.2" style="enable-background:new 0 0 234.8 38.2;" xml:space="preserve">
<style type="text/css">
	.st0{fill:#DC006A;}
	.st1{fill:#FFFFFF;}
</style>
<g>
	<g>
		<path class="st0" d="M13,17c0,2.5-1.3,4.6-3.8,4.6c-2.4,0-3.8-2.1-3.8-4.6c0-2.5,1.3-4.6,3.8-4.6C11.7,12.4,13,14.5,13,17 M19.2,8
			c0-1.8-1.5-3.3-3.3-3.3c-1.7,0-3.1,1.3-3.2,3c-1-0.4-2.2-0.6-3.4-0.6C3.7,7.1,0,11.5,0,17c0,3.1,1.2,5.8,3.1,7.6
			c-1.9,1.2-2.9,3.3-2.9,5.7c0,4.5,3.9,7.8,8.8,7.8c5.1,0,8.8-3.4,8.8-6.8c0-1.4-1.4-2.6-2.6-2.6c-3.1,0-2.3,3.9-6.2,3.9
			c-1.6,0-2.8-1.4-2.8-3c0-2.1,1.7-2.8,3.5-2.9c5.3,0,8.8-4.8,8.8-9.8c0-2.2-0.6-4.3-1.7-5.9C18.1,10.7,19.2,9.5,19.2,8 M69.3,15
			c0-1.2-1.4-3.3-3.5-3.3c-2.1,0-3.5,2.1-3.5,3.3H69.3z M62.2,18.8c0,1.2,0.9,3,4.4,3c2.7,0,4.3-1.7,5.6-1.7c1.2,0,2.3,0.9,2.3,2.3
			c0,2.7-4.4,4.4-8.6,4.4c-5.9,0-9.5-4.4-9.5-9.9c0-5.2,3.9-9.9,9.5-9.9c5.4,0,8.8,4.5,8.8,9.3c0,1.9-0.9,2.4-2.7,2.4H62.2z
			 M45.5,12.4c2.4,0,3.7,2.1,3.7,4.6c0,2.5-1.3,4.6-3.7,4.6c-2.4,0-3.7-2.1-3.7-4.6C41.7,14.5,43.1,12.4,45.5,12.4 M54.7,2.8
			c0-1.6-1.1-2.8-2.7-2.8c-1.6,0-2.7,1.3-2.7,2.8v5.8c-1-0.8-2.2-1.5-4.5-1.5c-4.8,0-8.4,4.4-8.4,9.9c0,5.5,3.7,9.9,8.4,9.9
			c2.1,0,3.5-0.6,4.7-2.1c0.4,0.8,1.2,1.7,2.6,1.7c1.6,0,2.7-1.3,2.7-2.8V2.8z M28.7,2.8c0-1.6,1.1-2.8,2.7-2.8
			c1.6,0,2.7,1.3,2.7,2.8v20.8c0,1.6-1.1,2.8-2.7,2.8c-1.6,0-2.7-1.3-2.7-2.8V2.8z M20.6,23.7c0,1.6,1.1,2.8,2.7,2.8
			c1.6,0,2.7-1.3,2.7-2.8V10.3c0-1.6-1.1-2.8-2.7-2.8c-1.6,0-2.7,1.3-2.7,2.8V23.7z"/>
	</g>
</g>
<g>
	<g>
		<path class="st1" d="M105.9,13.1h-0.6c-1.8,0-2.9-0.8-2.9-2.5c0-1.8,1.1-2.5,2.9-2.5h0.6V4.4c0-1.6,1.1-2.8,2.7-2.8
			s2.7,1.3,2.7,2.8V8h1.5c1.8,0,2.9,0.8,2.9,2.5c0,1.8-1.1,2.5-2.9,2.5h-1.5V24c0,1.6-1.1,2.8-2.7,2.8s-2.7-1.3-2.7-2.8V13.1z"/>
	</g>
	<g>
		<path class="st1" d="M159.9,17c0,5.5-3.7,9.9-9.3,9.9c-5.6,0-9.3-4.4-9.3-9.9c0-5.5,3.7-9.9,9.3-9.9
			C156.2,7.1,159.9,11.5,159.9,17z M146.9,17c0,2.5,1.3,4.6,3.8,4.6c2.4,0,3.8-2.1,3.8-4.6c0-2.5-1.3-4.6-3.8-4.6
			C148.2,12.4,146.9,14.5,146.9,17z"/>
	</g>
	<g>
		<path class="st1" d="M134.7,7.1c2.5,0,6.5,0.7,6.5,3.6c0,1.5-1,2.6-2.3,2.6c-1.4,0-1.8-0.9-3.9-0.9c-2.8,0-4.1,2.1-4.1,4.6
			c0,2.5,1.3,4.6,3.8,4.6c2.4,0,3.5-0.9,4.3-0.9c1.3,0,2.3,1.3,2.3,2.4c0,2.7-4.3,3.8-6.5,3.8c-5.6,0-9.3-4.4-9.3-9.9
			C125.4,11.5,129.1,7.1,134.7,7.1z"/>
	</g>
	<g>
		<path class="st1" d="M95,7.1c2.5,0,6.5,0.7,6.5,3.6c0,1.5-1,2.6-2.3,2.6c-1.4,0-1.8-0.9-3.9-0.9c-2.8,0-4.1,2.1-4.1,4.6
			c0,2.5,1.3,4.6,3.8,4.6c2.4,0,3.5-0.9,4.3-0.9c1.3,0,2.3,1.3,2.3,2.4c0,2.7-4.3,3.8-6.5,3.8c-5.6,0-9.3-4.4-9.3-9.9
			C85.8,11.5,89.5,7.1,95,7.1z"/>
	</g>
	<g>
		<path class="st1" d="M161.6,2.9c0-1.6,1.1-2.9,2.7-2.9c1.6,0,2.7,1.3,2.7,2.9v20.8c0,1.6-1.1,2.9-2.7,2.9c-1.6,0-2.7-1.3-2.7-2.9
			V2.9z"/>
	</g>
	<g>
		<path class="st1" d="M169.6,2.9c0-1.6,1.1-2.9,2.7-2.9c1.6,0,2.7,1.3,2.7,2.9v20.8c0,1.6-1.1,2.9-2.7,2.9c-1.6,0-2.7-1.3-2.7-2.9
			V2.9z"/>
	</g>
	<g>
		<path class="st1" d="M215.9,8c0-1.8-1.5-3.3-3.3-3.3c-1.7,0-3.1,1.3-3.2,3c-1-0.4-2.2-0.6-3.4-0.6c-5.5,0-9.2,4.4-9.2,9.9
			c0,3.1,1.2,5.8,3.1,7.6c-1.9,1.2-2.9,3.3-2.9,5.7c0,4.5,3.9,7.8,8.8,7.8c5.1,0,8.8-3.4,8.8-6.8c0-1.4-1.4-2.6-2.6-2.6
			c-3.1,0-2.3,3.9-6.2,3.9c-1.6,0-2.8-1.4-2.8-3c0-2.1,1.7-2.8,3.5-2.9c5.3,0,8.8-4.8,8.8-9.8c0-2.2-0.6-4.3-1.7-5.9
			C214.8,10.7,215.9,9.5,215.9,8z M205.9,21.6c-2.4,0-3.8-2.1-3.8-4.6c0-2.5,1.3-4.6,3.8-4.6c2.4,0,3.8,2.1,3.8,4.6
			C209.7,19.5,208.3,21.6,205.9,21.6z"/>
	</g>
	<g>
		<path class="st1" d="M192.6,20.1c-1.3,0-2.9,1.7-5.6,1.7c-3.5,0-4.4-1.9-4.4-3h9.9c1.7,0,2.7-0.5,2.7-2.4c0-4.8-3.5-9.3-8.8-9.3
			c-5.6,0-9.5,4.6-9.5,9.9c0,5.5,3.7,9.9,9.5,9.9c4.1,0,8.6-1.7,8.6-4.4C194.9,21,193.8,20.1,192.6,20.1z M186.2,11.7
			c2.1,0,3.5,2.1,3.5,3.3h-7.1C182.6,13.8,184,11.7,186.2,11.7z"/>
	</g>
	<g>
		<path class="st1" d="M232.3,20.1c-1.3,0-2.9,1.7-5.6,1.7c-3.5,0-4.4-1.9-4.4-3h9.9c1.7,0,2.7-0.5,2.7-2.4c0-4.8-3.5-9.3-8.8-9.3
			c-5.6,0-9.5,4.6-9.5,9.9c0,5.5,3.7,9.9,9.5,9.9c4.1,0,8.6-1.7,8.6-4.4C234.5,21,233.5,20.1,232.3,20.1z M225.8,11.7
			c2.1,0,3.5,2.1,3.5,3.3h-7.1C222.3,13.8,223.7,11.7,225.8,11.7z"/>
	</g>
	<g>
		<path class="st1" d="M78.7,23.7c0,1.6,1.1,2.8,2.7,2.8c1.6,0,2.7-1.3,2.7-2.8V10.3c0-1.6-1.1-2.8-2.7-2.8c-1.6,0-2.7,1.3-2.7,2.8
			V23.7z"/>
	</g>
</g>
</svg>
